# Blender 5.0.1
# www.blender.org
mtllib wall.mtl
o Cube
v 7.821806 -5.897148 -0.565633
v 7.821806 -5.897148 0.565633
v -7.821805 -5.897148 -0.565633
v -7.821805 -5.897148 0.565633
v 5.800653 5.897147 -0.419474
v 7.821806 4.373325 -0.565633
v 6.840569 5.724962 -0.494675
v 7.593426 5.157356 -0.549118
v 5.800653 5.897147 0.419474
v 7.821806 4.373325 0.565633
v 6.840569 5.724962 0.494675
v 7.593426 5.157356 0.549118
v -5.800651 5.897147 -0.419474
v -7.821805 4.373325 -0.565633
v -6.840567 5.724962 -0.494675
v -7.593423 5.157356 -0.549118
v -5.800651 5.897147 0.419474
v -7.821805 4.373325 0.565633
v -6.840567 5.724962 0.494675
v -7.593423 5.157356 0.549118
vn -0.0000 -1.0000 -0.0000
vn -0.0000 0.4002 0.9164
vn -0.0000 0.0955 0.9954
vn -0.0000 0.0211 0.9998
vn 0.1634 0.9866 -0.0000
vn 0.6020 0.7985 -0.0000
vn 0.9601 0.2797 -0.0000
vn -0.1634 0.9866 -0.0000
vn -0.6020 0.7985 -0.0000
vn -0.9601 0.2797 -0.0000
vn -0.0000 0.4002 -0.9164
vn -0.0000 0.0955 -0.9954
vn -0.0000 0.0211 -0.9998
vn -0.0000 -0.0000 -1.0000
vn 1.0000 -0.0000 -0.0000
vn -0.0000 1.0000 -0.0000
vn -0.0000 -0.0000 1.0000
vn -1.0000 -0.0000 -0.0000
vt 0.619093 1.119359
vt -0.179184 1.119359
vt -0.179184 1.059534
vt 0.619093 1.059534
vt -0.076046 -0.179184
vt 0.515956 -0.179184
vt 0.569022 -0.169636
vt -0.129112 -0.169636
vt 0.607439 -0.139500
vt -0.167530 -0.139500
vt 0.619093 -0.098281
vt -0.179184 -0.098281
vt 0.504302 1.170581
vt 0.504302 1.126215
vt 0.557368 1.122238
vt 0.557368 1.174558
vt 0.595785 1.119359
vt 0.595785 1.177437
vt 0.595785 1.178310
vt 0.595785 1.120232
vt 0.637039 1.119359
vt 0.637039 1.179184
vt -0.087700 1.126215
vt -0.087700 1.170581
vt -0.140766 1.174558
vt -0.140766 1.122238
vt -0.179184 1.177437
vt -0.179184 1.119359
vt 0.619093 -0.120232
vt 0.619093 -0.178310
vt 0.660347 -0.179184
vt 0.660347 -0.119359
vt -0.076046 0.440175
vt 0.515956 0.440175
vt 0.569022 0.449723
vt -0.129112 0.449723
vt 0.607439 0.479859
vt -0.167530 0.479859
vt 0.619093 0.521078
vt -0.179184 0.521078
vt -0.179184 1.059534
vt 0.619093 1.059534
vt 1.155876 1.179184
vt 1.155876 1.119359
vt -0.179184 0.440175
vt 0.619093 0.440175
vt 1.179184 -0.119359
vt 1.179184 -0.179184
s 0
usemtl Material
f 3/1/1 1/2/1 2/3/1 4/4/1
f 9/5/2 17/6/2 19/7/2 11/8/2
f 11/8/3 19/7/3 20/9/3 12/10/3
f 12/10/4 20/9/4 18/11/4 10/12/4
f 5/13/5 9/14/5 11/15/5 7/16/5
f 7/16/6 11/15/6 12/17/6 8/18/6
f 8/19/7 12/20/7 10/21/7 6/22/7
f 17/23/8 13/24/8 15/25/8 19/26/8
f 19/26/9 15/25/9 16/27/9 20/28/9
f 20/29/10 16/30/10 14/31/10 18/32/10
f 13/33/11 5/34/11 7/35/11 15/36/11
f 15/36/12 7/35/12 8/37/12 16/38/12
f 16/38/13 8/37/13 6/39/13 14/40/13
f 3/41/14 14/40/14 6/39/14 1/42/14
f 1/43/15 6/22/15 10/21/15 2/44/15
f 5/13/16 13/24/16 17/23/16 9/14/16
f 2/45/17 10/12/17 18/11/17 4/46/17
f 4/47/18 18/32/18 14/31/18 3/48/18
